<svg width="189" height="129" xmlns="http://www.w3.org/2000/svg" xmlns:xlink="http://www.w3.org/1999/xlink" xml:space="preserve" overflow="hidden"><defs><clipPath id="clip0"><rect x="43" y="71" width="189" height="129"/></clipPath></defs><g clip-path="url(#clip0)" transform="translate(-43 -71)"><path d="M0 0C-7.24291 0-12.4999-5.30201-12.4999-12.605-12.4999-19.8963-7.24291-25.1883 0-25.1883 5.57738-25.1883 10.0166-21.8372 11.5119-16.5819L8.53462-16.5819C7.18784-20.2434 4.02866-22.413 0-22.413-5.51396-22.413-9.51425-18.2875-9.51425-12.605-9.51425-6.90914-5.51396-2.77701 0-2.77701 3.90183-2.77701 7.01928-4.8097 8.42948-8.2409L11.4001-8.2409C9.88641-3.20758 5.49393 0 0 0" fill="#FFFFFF" transform="matrix(1 0 0 -1.00062 168.666 174.406)"/><path d="M0 0 6.1498 0C9.21552 0 11.3567-1.95926 11.3567-4.76464 11.3567-7.57001 9.21552-9.52927 6.1498-9.52927L0-9.52927ZM11.3534-21.6353 14.5693-21.6353 8.8467-11.8924 9.56265-11.6254C12.5115-10.5289 14.344-7.9138 14.344-4.80135 14.344-0.487311 10.9995 2.64517 6.39513 2.64517L-2.91385 2.64517-2.91385-21.6353 0-21.6353 0-12.1761 5.85775-12.1761Z" fill="#FFFFFF" transform="matrix(1 0 0 -1.00062 188.355 177.507)"/><path d="M0 0C0 5.62411 4.23727 9.86471 9.85971 9.86471 15.4688 9.86471 19.6977 5.62411 19.6977 0 19.6977-5.62411 15.4688-9.86638 9.85971-9.86638 4.23727-9.86638 0-5.62411 0 0M22.685-0.00166887C22.685 7.19285 17.171 12.62 9.85971 12.62 2.53502 12.62-2.98562 7.19452-2.98562-1.48226e-15-2.98562-7.19452 2.53502-12.6217 9.85971-12.6217 17.171-12.6217 22.685-7.19619 22.685-0.00166887" fill="#FFFFFF" transform="matrix(1 0 0 -1.00062 209.542 187.007)"/><path d="M0 0C-3.57974 0-6.49192 2.91219-6.49192 6.49192-6.49192 10.0717-3.57974 12.9838 0 12.9838 3.57974 12.9838 6.49192 10.0717 6.49192 6.49192 6.49192 2.91219 3.57974 0 0 0M0 16.8206C-5.70421 16.8206-10.3287 12.1961-10.3287 6.49192-10.3287 0.787709-5.70421-3.83674 0-3.83674 5.70421-3.83674 10.3287 0.787709 10.3287 6.49192 10.3287 12.1961 5.70421 16.8206 0 16.8206" fill="#FFFFFF" transform="matrix(1 0 0 -1.00062 143.124 195.428)"/><path d="M0 0C2.91219 0 5.38212-1.92755 6.20321-4.57438L10.1484-4.57438C9.2489 0.213616 5.04834 3.83507 0 3.83507-5.70421 3.83507-10.3287-0.787709-10.3287-6.49192-10.3287-12.1961-5.70421-16.8206 0-16.8206 5.04834-16.8206 9.2489-13.1975 10.1484-8.41113L6.20321-8.41113C5.38212-11.0563 2.91219-12.9838 0-12.9838-3.57974-12.9838-6.49192-10.0717-6.49192-6.49192-6.49192-2.91219-3.57974 0 0 0" fill="#FFFFFF" transform="matrix(1 0 0 -1.00062 97.829 182.436)"/><path d="M0 0C2.91219 0 5.38212-1.92755 6.20321-4.57438L10.1484-4.57438C9.2489 0.213616 5.04834 3.83507 0 3.83507-5.70421 3.83507-10.3287-0.787709-10.3287-6.49192-10.3287-12.1961-5.70421-16.8206 0-16.8206 5.04834-16.8206 9.2489-13.1975 10.1484-8.41113L6.20321-8.41113C5.38212-11.0563 2.91219-12.9838 0-12.9838-3.57974-12.9838-6.49192-10.0717-6.49192-6.49192-6.49192-2.91219-3.57974 0 0 0" fill="#FFFFFF" transform="matrix(1 0 0 -1.00062 120.582 182.436)"/><path d="M0 0-7.90379 0-7.90379 6.62209 0 6.62209C1.82909 6.62209 3.31105 5.14013 3.31105 3.31105 3.31105 1.48196 1.82909 0 0 0M0 10.4588-7.90379 10.4588-7.90379 17.0809 0 17.0809C1.82909 17.0809 3.31105 15.599 3.31105 13.7699 3.31105 13.094 3.10744 12.4682 2.75865 11.9441 4.0053 11.5436 5.12845 10.8777 6.0747 10.0199 6.7506 11.1097 7.14612 12.3914 7.14612 13.7699 7.14612 17.7168 3.94689 20.9177 0 20.9177L-11.7389 20.9177-11.7405-3.83674-11.7389-3.83674 0-3.83674C3.94689-3.83674 7.14612-0.63751 7.14612 3.31105 7.14612 7.25793 3.94689 10.4588 0 10.4588" fill="#FFFFFF" transform="matrix(1 0 0 -1.00062 54.7405 194.937)"/><path d="M0 0C2.91219 0 5.38212-1.92755 6.20154-4.57438L-6.20321-4.57438C-5.38212-1.92755-2.91219 0 0 0M0 3.83507C-5.70421 3.83507-10.3287-0.787709-10.3287-6.49192-10.3287-12.1961-5.70421-16.8206 0-16.8206 3.97192-16.8206 7.41815-14.5759 9.14543-11.2883L4.36577-11.2883C3.21258-12.3397 1.68056-12.9838 0-12.9838-2.91219-12.9838-5.38212-11.0563-6.20321-8.41113L6.20154-8.41113 8.41113-8.41113 10.1468-8.41113C10.2636-7.78864 10.3287-7.14779 10.3287-6.49192 10.3287-0.787709 5.70421 3.83507 0 3.83507" fill="#FFFFFF" transform="matrix(1 0 0 -1.00062 75.1075 182.436)"/><path d="M0 0C2.05772 0 3.7316 1.67388 3.7316 3.7316 3.7316 5.78932 2.05772 7.46487 0 7.46487-2.05772 7.46487-3.72993 5.78932-3.72993 3.7316-3.72993 1.67388-2.05772 0 0 0" fill="#FFFFFF" transform="matrix(1 0 0 -1.00062 136.436 78.4695)"/><path d="M0 0C2.05772 0 3.7316 1.67388 3.7316 3.7316 3.7316 5.78932 2.05772 7.46487 0 7.46487-2.05772 7.46487-3.72993 5.78932-3.72993 3.7316-3.72993 1.67388-2.05772 0 0 0" fill="#FFFFFF" transform="matrix(1 0 0 -1.00062 136.436 162.82)"/><path d="M0 0-24.1853 18.5863-33.5694 18.5863-3.56305-4.6378C-1.42856-6.2783-0.151868-8.86673-0.151868-11.562-0.151868-16.9107-4.50429-21.2631-9.8547-21.2631L-40.3567-21.2631-40.3567 2.65017-46.2045 7.14445-46.2045-27.1125-9.8547-27.1125C-1.28003-27.1125 5.69587-20.1366 5.69587-11.562 5.69587-7.06267 3.56638-2.74029 0 0" fill="#FFFFFF" transform="matrix(1 0 0 -1.00062 157.868 121.715)"/><path d="M0 0 32.508 0C36.7519 0 40.2048-3.4529 40.2048-7.69685 40.2048-11.9408 36.7519-15.3937 32.508-15.3937L28.6412-15.3937 35.7106-20.8376C41.6351-19.394 46.0526-14.0603 46.0526-7.69685 46.0526-0.226967 39.9762 5.84773 32.508 5.84773L-5.84773 5.84773-5.84773-16.9457 24.8996-40.577 34.4356-40.577 0-14.0636Z" fill="#FFFFFF" transform="matrix(1 0 0 -1.00062 117.511 90.8291)"/></g></svg>