<svg width="585" height="204" xmlns="http://www.w3.org/2000/svg" xmlns:xlink="http://www.w3.org/1999/xlink" xml:space="preserve" overflow="hidden"><defs><clipPath id="clip0"><rect x="2370" y="1098" width="585" height="204"/></clipPath></defs><g clip-path="url(#clip0)" transform="translate(-2370 -1098)"><path d="M27.7253 56.0175C11.7401 56.0175 0.134923 44.2313 0.134923 27.992 0.134923 11.7847 11.7401 0.0170783 27.7253 0.0170783 40.0361 0.0170783 49.8318 7.46539 53.1352 19.1502L46.5651 19.1502C43.5914 11.0097 36.6183 6.18706 27.7253 6.18706 15.5566 6.18706 6.72343 15.3566 6.72343 27.992 6.72343 40.6547 15.5566 49.8428 27.7253 49.8428 36.3344 49.8428 43.2205 45.325 46.3313 37.6968L52.8877 37.6968C49.5475 48.8875 39.8529 56.0175 27.7253 56.0175" fill="#80BA4C" fill-rule="evenodd" transform="matrix(1 0 0 -1 2786 1229)"/><path d="M6.64234 48.1354 20.3616 48.1354C27.2005 48.1354 31.974 43.7773 31.974 37.5358 31.974 31.2987 27.2005 26.9405 20.3616 26.9405L6.64234 26.9405ZM31.9648 0.0167215 39.1417 0.0167215 26.3761 21.6871 27.9734 22.2778C34.553 24.7202 38.6367 30.5324 38.6367 37.4573 38.6367 47.0551 31.1777 54.0171 20.9078 54.0171L0.141458 54.0171 0.141458 0.0167215 6.64234 0.0167215 6.64234 21.0546 19.7086 21.0546Z" fill="#80BA4C" fill-rule="evenodd" transform="matrix(1 0 0 -1 2851 1228)"/><path d="M6.65872 28.0174C6.65872 40.4967 15.9001 49.8998 28.1658 49.8998 40.4001 49.8998 49.6276 40.4967 49.6276 28.0174 49.6276 15.5381 40.4001 6.13033 28.1658 6.13033 15.9001 6.13033 6.65872 15.5381 6.65872 28.0174M56.143 28.0127C56.143 43.978 44.1129 56.0153 28.1658 56.0153 12.1873 56.0153 0.143321 43.978 0.143321 28.0174 0.143321 12.0569 12.1873 0.0148662 28.1658 0.0148662 44.1129 0.0148662 56.143 12.0522 56.143 28.0127" fill="#80BA4C" fill-rule="evenodd" transform="matrix(1 0 0 -1 2898 1229)"/><path d="M22.6275 8.55699C14.832 8.55699 8.48339 15.0425 8.48339 23.0168 8.48339 30.9859 14.832 37.4715 22.6275 37.4715 30.4273 37.4715 36.7712 30.9859 36.7712 23.0168 36.7712 15.0425 30.4273 8.55699 22.6275 8.55699M22.6275 46.0143C10.2016 46.0143 0.127463 35.7196 0.127463 23.0168 0.127463 10.3136 10.2016 0.0145595 22.6275 0.0145595 35.053 0.0145595 45.1275 10.3136 45.1275 23.0168 45.1275 35.7196 35.053 46.0143 22.6275 46.0143" fill="#007049" fill-rule="evenodd" transform="matrix(1 0 0 -1 2735 1228)"/><path d="M22.8166 37.4745C29.2165 37.4745 34.6448 33.1806 36.4465 27.2876L45.1182 27.2876C43.1384 37.9506 33.9103 46.0164 22.8166 46.0164 10.2812 46.0164 0.118171 35.7181 0.118171 23.0166 0.118171 10.3147 10.2812 0.0167417 22.8166 0.0167417 33.9103 0.0167417 43.1384 8.08698 45.1182 18.7456L36.4465 18.7456C34.6448 12.8525 29.2165 8.56303 22.8166 8.56303 14.9477 8.56303 8.55247 15.0479 8.55247 23.0166 8.55247 30.9897 14.9477 37.4745 22.8166 37.4745" fill="#007049" fill-rule="evenodd" transform="matrix(1 0 0 -1 2635 1228)"/><path d="M22.8217 37.4745C29.2219 37.4745 34.6502 33.1806 36.4519 27.2876L45.1236 27.2876C43.1438 37.9506 33.9157 46.0164 22.8217 46.0164 10.2866 46.0164 0.123199 35.7181 0.123199 23.0166 0.123199 10.3147 10.2866 0.0167417 22.8217 0.0167417 33.9157 0.0167417 43.1438 8.08698 45.1236 18.7456L36.4519 18.7456C34.6502 12.8525 29.2219 8.56303 22.8217 8.56303 14.9531 8.56303 8.55785 15.0479 8.55785 23.0166 8.55785 30.9897 14.9531 37.4745 22.8217 37.4745" fill="#007049" fill-rule="evenodd" transform="matrix(1 0 0 -1 2685 1228)"/><path d="M26.2171 8.54056 8.63943 8.54056 8.63943 23.257 26.2171 23.257C30.2834 23.257 33.5793 19.9593 33.5793 15.8966 33.5793 11.8335 30.2834 8.54056 26.2171 8.54056M26.2171 31.775 8.63943 31.775 8.63943 46.491 26.2171 46.491C30.2834 46.491 33.5793 43.1981 33.5793 39.1354 33.5793 37.632 33.1272 36.239 32.3515 35.077 35.1211 34.1913 37.6184 32.7064 39.7279 30.8018 41.2279 33.2275 42.1097 36.0731 42.1097 39.1354 42.1097 47.9022 34.9917 55.0138 26.2171 55.0138L0.109401 55.0138 0.109401 0.013436 0.109401 0.013436 26.2171 0.013436C34.9917 0.013436 42.1097 7.1247 42.1097 15.8966 42.1097 24.6681 34.9917 31.775 26.2171 31.775" fill="#007049" fill-rule="evenodd" transform="matrix(1 0 0 -1 2536 1227)"/><path d="M23.1143 37.4745C29.5992 37.4745 35.0997 33.1806 36.9256 27.2876L9.30338 27.2876C11.129 33.1806 16.6294 37.4745 23.1143 37.4745M23.1143 46.0164C10.4127 46.0164 0.114281 35.7181 0.114281 23.0166 0.114281 10.3147 10.4127 0.0167417 23.1143 0.0167417 31.9613 0.0167417 39.6342 5.01779 43.4797 12.3394L32.8348 12.3394C30.2696 9.9959 26.8583 8.56303 23.1143 8.56303 16.6294 8.56303 11.129 12.8525 9.30338 18.7456L36.9256 18.7456 41.8437 18.7456 45.7122 18.7456C45.9713 20.1323 46.1143 21.5561 46.1143 23.0166 46.1143 35.7181 35.8163 46.0164 23.1143 46.0164" fill="#007049" fill-rule="evenodd" transform="matrix(1 0 0 -1 2584 1228)"/><path d="M8.59505 0.00420421C13.2815 0.00420421 17.0974 3.59495 17.0974 8.00446 17.0974 12.414 13.2815 16.0047 8.59505 16.0047 3.9086 16.0047 0.0971844 12.414 0.0971844 8.00446 0.0971844 3.59495 3.9086 0.00420421 8.59505 0.00420421" fill="#80BA4C" fill-rule="evenodd" transform="matrix(1 0 0 -1 2416 1115)"/><path d="M8.59505 0.0249406C13.2815 0.0249406 17.0974 3.83974 17.0974 8.52485 17.0974 13.21 13.2815 17.0251 8.59505 17.0251 3.9086 17.0251 0.0971844 13.21 0.0971844 8.52485 0.0971844 3.83974 3.9086 0.0249406 8.59505 0.0249406" fill="#007049" fill-rule="evenodd" transform="matrix(1 0 0 -1 2416 1302)"/><path d="M101.587 59.9377 48.4669 101.017 27.8496 101.017 93.7584 49.6895C98.4498 46.0611 101.254 40.3406 101.254 34.3861 101.254 22.5648 91.6931 12.945 79.9391 12.945L12.9408 12.945 12.9408 65.7911 0.0976474 75.7273 0.0976474 0.0176993 79.9391 0.0176993C98.7736 0.0176993 114.097 15.4359 114.097 34.3861 114.097 44.3316 109.419 53.8824 101.587 59.9377" fill="#007049" fill-rule="evenodd" transform="matrix(1 0 0 -1 2370 1271)"/><path d="M12.934 89.1687 84.3365 89.1687C93.6604 89.1687 101.242 81.5795 101.242 72.2577 101.242 62.9308 93.6604 55.3464 84.3365 55.3464L75.8473 55.3464 91.3714 43.3836C104.384 46.5578 114.09 58.2789 114.09 72.2577 114.09 88.667 100.741 102.016 84.3365 102.016L0.0904675 102.016 0.0904675 51.9352 67.6269 0.0158009 88.572 0.0158009 12.934 58.2652Z" fill="#80BA4C" fill-rule="evenodd" transform="matrix(1 0 0 -1 2370 1232)"/></g></svg>